<svg width="24" height="24" viewBox="0 0 24 24" fill="none" xmlns="http://www.w3.org/2000/svg">
<g clip-path="url(#clip0_6403_440)">
<path d="M14.2287 6C14.074 6.27466 13.9351 6.5588 13.8088 6.84925C12.6091 6.6693 11.3873 6.6693 10.1845 6.84925C10.0614 6.5588 9.91931 6.27466 9.76462 6C8.63755 6.19259 7.53889 6.53039 6.49706 7.0071C4.43234 10.0663 3.87354 13.0466 4.15136 15.9858C5.36051 16.8792 6.7149 17.5612 8.15767 17.9968C8.48285 17.5612 8.77015 17.0971 9.0164 16.614C8.54915 16.4404 8.09769 16.2226 7.66517 15.97C7.77882 15.8879 7.88932 15.8027 7.99666 15.7206C10.5318 16.914 13.4679 16.914 16.0061 15.7206C16.1135 15.809 16.224 15.8942 16.3376 15.97C15.9051 16.2257 15.4536 16.4404 14.9832 16.6172C15.2295 17.1002 15.5168 17.5643 15.842 18C17.2847 17.5643 18.6391 16.8855 19.8483 15.9921C20.1766 12.5825 19.2863 9.62746 17.4962 7.01026C16.4576 6.53355 15.3589 6.19574 14.2319 6.00631L14.2287 6ZM9.36999 14.1768C8.5902 14.1768 7.943 13.4696 7.943 12.5951C7.943 11.7206 8.56494 11.0103 9.36684 11.0103C10.1687 11.0103 10.8064 11.7238 10.7938 12.5951C10.7812 13.4665 10.1656 14.1768 9.36999 14.1768ZM14.6297 14.1768C13.8467 14.1768 13.2058 13.4696 13.2058 12.5951C13.2058 11.7206 13.8278 11.0103 14.6297 11.0103C15.4316 11.0103 16.0661 11.7238 16.0535 12.5951C16.0409 13.4665 15.4252 14.1768 14.6297 14.1768Z" fill="#191919"/>
</g>
<defs>
<clipPath id="clip0_6403_440">
<rect width="15.8305" height="12" fill="white" transform="translate(4.08496 6)"/>
</clipPath>
</defs>
</svg>
