<svg width="24" height="24" viewBox="0 0 24 24" fill="none" xmlns="http://www.w3.org/2000/svg">
<path d="M8.87378 4.5C6.4619 4.5 4.5 6.46372 4.5 8.87622V15.1262C4.5 17.5381 6.46372 19.5 8.87622 19.5H15.1262C17.5381 19.5 19.5 17.5363 19.5 15.1238V8.87378C19.5 6.4619 17.5363 4.5 15.1238 4.5H8.87378ZM16.375 7C16.72 7 17 7.28 17 7.625C17 7.97 16.72 8.25 16.375 8.25C16.03 8.25 15.75 7.97 15.75 7.625C15.75 7.28 16.03 7 16.375 7ZM12 8.25C14.0681 8.25 15.75 9.93188 15.75 12C15.75 14.0681 14.0681 15.75 12 15.75C9.93188 15.75 8.25 14.0681 8.25 12C8.25 9.93188 9.93188 8.25 12 8.25ZM12 9.5C11.337 9.5 10.7011 9.76339 10.2322 10.2322C9.76339 10.7011 9.5 11.337 9.5 12C9.5 12.663 9.76339 13.2989 10.2322 13.7678C10.7011 14.2366 11.337 14.5 12 14.5C12.663 14.5 13.2989 14.2366 13.7678 13.7678C14.2366 13.2989 14.5 12.663 14.5 12C14.5 11.337 14.2366 10.7011 13.7678 10.2322C13.2989 9.76339 12.663 9.5 12 9.5Z" fill="black"/>
</svg>
