<svg width="24" height="24" viewBox="0 0 24 24" fill="none" xmlns="http://www.w3.org/2000/svg">
<path d="M8.16287 18H5.2697V8.69933H8.16287V18ZM6.68687 7.36968C5.75419 7.36968 5 6.61422 5 5.68435C5 4.75448 5.75517 4 6.68687 4C7.6166 4 8.37275 4.75546 8.37275 5.68435C8.37275 6.61422 7.6166 7.36968 6.68687 7.36968ZM19 18H16.1088V13.477C16.1088 12.3982 16.0892 11.0108 14.6053 11.0108C13.0999 11.0108 12.8684 12.1856 12.8684 13.3987V18H9.97723V8.69933H12.7527V9.97019H12.7919C13.1784 9.23922 14.1218 8.46808 15.5292 8.46808C18.4586 8.46808 19 10.3945 19 12.8989V18Z" fill="#191919"/>
</svg>
